<?plantuml 1.2026.1?><svg xmlns="http://www.w3.org/2000/svg" xmlns:xlink="http://www.w3.org/1999/xlink" contentStyleType="text/css" data-diagram-type="DESCRIPTION" height="731px" preserveAspectRatio="none" style="width:1520px;height:731px;background:#FFFFFF;" version="1.1" viewBox="0 0 1520 731" width="1520px" zoomAndPan="magnify"><title>arena_bringup node/topic flow</title><defs/><g><g class="title" data-source-line="6"><text fill="#000000" font-family="sans-serif" font-size="14" font-weight="bold" lengthAdjust="spacing" textLength="240.7959" x="632.7871" y="22.9951">arena_bringup node/topic flow</text></g><!--cluster bringup_single_cam.launch.py (defaults from config/bringup.yaml)--><g class="cluster" data-qualified-name="bringup_single_cam.launch.py .defaults from config.bringup.yaml." data-source-line="13" id="ent0002"><rect fill="none" height="292" rx="2.5" ry="2.5" style="stroke:#181818;stroke-width:1;" width="1501.61" x="12.76" y="360.2969"/><text fill="#000000" font-family="sans-serif" font-size="14" font-weight="bold" lengthAdjust="spacing" textLength="526.0322" x="500.5489" y="375.292">bringup_single_cam.launch.py (defaults from config/bringup.yaml)</text></g><!--cluster bringup_multi_cam.launch.py--><g class="cluster" data-qualified-name="bringup_multi_cam.launch.py" data-source-line="38" id="ent0021"><rect fill="none" height="292" rx="2.5" ry="2.5" style="stroke:#181818;stroke-width:1;" width="1021.49" x="7" y="44.2969"/><text fill="#000000" font-family="sans-serif" font-size="14" font-weight="bold" lengthAdjust="spacing" textLength="231.1094" x="402.1903" y="59.292">bringup_multi_cam.launch.py</text></g><!--entity sc_rsp--><g class="entity" data-qualified-name="bringup_single_cam.launch.py .defaults from config.bringup.yaml..sc_rsp" data-source-line="14" id="ent0003"><rect fill="#F1F1F1" height="46.2969" rx="2.5" ry="2.5" style="stroke:#181818;stroke-width:0.5;" width="191.6895" x="588.58" y="590.1469"/><rect fill="#F1F1F1" height="10" style="stroke:#181818;stroke-width:0.5;" width="15" x="760.2695" y="595.1469"/><rect fill="#F1F1F1" height="2" style="stroke:#181818;stroke-width:0.5;" width="4" x="758.2695" y="597.1469"/><rect fill="#F1F1F1" height="2" style="stroke:#181818;stroke-width:0.5;" width="4" x="758.2695" y="601.1469"/><text fill="#000000" font-family="sans-serif" font-size="14" lengthAdjust="spacing" textLength="151.6895" x="603.58" y="623.142">robot_state_publisher</text></g><!--entity sc_static_tf--><g class="entity" data-qualified-name="bringup_single_cam.launch.py .defaults from config.bringup.yaml..sc_static_tf" data-source-line="15" id="ent0004"><rect fill="#F1F1F1" height="62.5938" rx="2.5" ry="2.5" style="stroke:#181818;stroke-width:0.5;" width="289.8604" x="539.49" y="394.9969"/><rect fill="#F1F1F1" height="10" style="stroke:#181818;stroke-width:0.5;" width="15" x="809.3504" y="399.9969"/><rect fill="#F1F1F1" height="2" style="stroke:#181818;stroke-width:0.5;" width="4" x="807.3504" y="401.9969"/><rect fill="#F1F1F1" height="2" style="stroke:#181818;stroke-width:0.5;" width="4" x="807.3504" y="405.9969"/><text fill="#000000" font-family="sans-serif" font-size="14" lengthAdjust="spacing" textLength="177.1465" x="554.49" y="427.992">base_to_camera_static_tf</text><text fill="#000000" font-family="sans-serif" font-size="14" lengthAdjust="spacing" textLength="249.8604" x="554.49" y="444.2889">(tf2_ros/static_transform_publisher)</text></g><!--entity sc_usb_cam--><g class="entity" data-qualified-name="bringup_single_cam.launch.py .defaults from config.bringup.yaml..sc_usb_cam" data-source-line="16" id="ent0005"><rect fill="#F1F1F1" height="62.5938" rx="2.5" ry="2.5" style="stroke:#181818;stroke-width:0.5;" width="180.1709" x="28.76" y="493.9969"/><rect fill="#F1F1F1" height="10" style="stroke:#181818;stroke-width:0.5;" width="15" x="188.9309" y="498.9969"/><rect fill="#F1F1F1" height="2" style="stroke:#181818;stroke-width:0.5;" width="4" x="186.9309" y="500.9969"/><rect fill="#F1F1F1" height="2" style="stroke:#181818;stroke-width:0.5;" width="4" x="186.9309" y="504.9969"/><text fill="#000000" font-family="sans-serif" font-size="14" lengthAdjust="spacing" textLength="61.9678" x="43.76" y="526.992">usb_cam</text><text fill="#000000" font-family="sans-serif" font-size="14" lengthAdjust="spacing" textLength="140.1709" x="43.76" y="543.2889">/camera_1/usb_cam</text></g><!--entity sc_rectify--><g class="entity" data-qualified-name="bringup_single_cam.launch.py .defaults from config.bringup.yaml..sc_rectify" data-source-line="17" id="ent0006"><rect fill="#F1F1F1" height="62.5938" rx="2.5" ry="2.5" style="stroke:#181818;stroke-width:0.5;" width="204.8008" x="274.69" y="526.9969"/><rect fill="#F1F1F1" height="10" style="stroke:#181818;stroke-width:0.5;" width="15" x="459.4908" y="531.9969"/><rect fill="#F1F1F1" height="2" style="stroke:#181818;stroke-width:0.5;" width="4" x="457.4908" y="533.9969"/><rect fill="#F1F1F1" height="2" style="stroke:#181818;stroke-width:0.5;" width="4" x="457.4908" y="537.9969"/><text fill="#000000" font-family="sans-serif" font-size="14" lengthAdjust="spacing" textLength="86.5977" x="289.69" y="559.992">rectify_node</text><text fill="#000000" font-family="sans-serif" font-size="14" lengthAdjust="spacing" textLength="164.8008" x="289.69" y="576.2889">/camera_1/rectify_node</text></g><!--entity sc_apriltag--><g class="entity" data-qualified-name="bringup_single_cam.launch.py .defaults from config.bringup.yaml..sc_apriltag" data-source-line="18" id="ent0007"><rect fill="#F1F1F1" height="62.5938" rx="2.5" ry="2.5" style="stroke:#181818;stroke-width:0.5;" width="172.1592" x="598.34" y="492.9969"/><rect fill="#F1F1F1" height="10" style="stroke:#181818;stroke-width:0.5;" width="15" x="750.4992" y="497.9969"/><rect fill="#F1F1F1" height="2" style="stroke:#181818;stroke-width:0.5;" width="4" x="748.4992" y="499.9969"/><rect fill="#F1F1F1" height="2" style="stroke:#181818;stroke-width:0.5;" width="4" x="748.4992" y="503.9969"/><text fill="#000000" font-family="sans-serif" font-size="14" lengthAdjust="spacing" textLength="53.9561" x="613.34" y="525.992">apriltag</text><text fill="#000000" font-family="sans-serif" font-size="14" lengthAdjust="spacing" textLength="132.1592" x="613.34" y="542.2889">/camera_1/apriltag</text></g><!--entity sc_observer--><g class="entity" data-qualified-name="bringup_single_cam.launch.py .defaults from config.bringup.yaml..sc_observer" data-source-line="19" id="ent0008"><rect fill="#F1F1F1" height="46.2969" rx="2.5" ry="2.5" style="stroke:#181818;stroke-width:0.5;" width="172.084" x="889.35" y="501.1469"/><rect fill="#F1F1F1" height="10" style="stroke:#181818;stroke-width:0.5;" width="15" x="1041.434" y="506.1469"/><rect fill="#F1F1F1" height="2" style="stroke:#181818;stroke-width:0.5;" width="4" x="1039.434" y="508.1469"/><rect fill="#F1F1F1" height="2" style="stroke:#181818;stroke-width:0.5;" width="4" x="1039.434" y="512.1469"/><text fill="#000000" font-family="sans-serif" font-size="14" lengthAdjust="spacing" textLength="132.084" x="904.35" y="534.142">tag_pose_observer</text></g><!--entity sc_ekf--><g class="entity" data-qualified-name="bringup_single_cam.launch.py .defaults from config.bringup.yaml..sc_ekf" data-source-line="20" id="ent0009"><rect fill="#F1F1F1" height="62.5938" rx="2.5" ry="2.5" style="stroke:#181818;stroke-width:0.5;" width="242.7471" x="1121.43" y="492.9969"/><rect fill="#F1F1F1" height="10" style="stroke:#181818;stroke-width:0.5;" width="15" x="1344.1771" y="497.9969"/><rect fill="#F1F1F1" height="2" style="stroke:#181818;stroke-width:0.5;" width="4" x="1342.1771" y="499.9969"/><rect fill="#F1F1F1" height="2" style="stroke:#181818;stroke-width:0.5;" width="4" x="1342.1771" y="503.9969"/><text fill="#000000" font-family="sans-serif" font-size="14" lengthAdjust="spacing" textLength="59.7529" x="1136.43" y="525.992">ekf_map</text><text fill="#000000" font-family="sans-serif" font-size="14" lengthAdjust="spacing" textLength="202.7471" x="1136.43" y="542.2889">(robot_localization/ekf_node)</text></g><!--entity sc_rviz--><g class="entity" data-qualified-name="bringup_single_cam.launch.py .defaults from config.bringup.yaml..sc_rviz" data-source-line="21" id="ent0010"><rect fill="#F1F1F1" height="46.2969" rx="2.5" ry="2.5" style="stroke:#181818;stroke-width:0.5;" width="74.1865" x="1424.18" y="501.1469"/><rect fill="#F1F1F1" height="10" style="stroke:#181818;stroke-width:0.5;" width="15" x="1478.3665" y="506.1469"/><rect fill="#F1F1F1" height="2" style="stroke:#181818;stroke-width:0.5;" width="4" x="1476.3665" y="508.1469"/><rect fill="#F1F1F1" height="2" style="stroke:#181818;stroke-width:0.5;" width="4" x="1476.3665" y="512.1469"/><text fill="#000000" font-family="sans-serif" font-size="14" lengthAdjust="spacing" textLength="34.1865" x="1439.18" y="534.142">rviz2</text></g><!--entity mc_rsp--><g class="entity" data-qualified-name="bringup_multi_cam.launch.py.mc_rsp" data-source-line="39" id="ent0022"><rect fill="#F1F1F1" height="46.2969" rx="2.5" ry="2.5" style="stroke:#181818;stroke-width:0.5;" width="191.6895" x="23" y="274.1469"/><rect fill="#F1F1F1" height="10" style="stroke:#181818;stroke-width:0.5;" width="15" x="194.6895" y="279.1469"/><rect fill="#F1F1F1" height="2" style="stroke:#181818;stroke-width:0.5;" width="4" x="192.6895" y="281.1469"/><rect fill="#F1F1F1" height="2" style="stroke:#181818;stroke-width:0.5;" width="4" x="192.6895" y="285.1469"/><text fill="#000000" font-family="sans-serif" font-size="14" lengthAdjust="spacing" textLength="151.6895" x="38" y="307.142">robot_state_publisher</text></g><!--entity mc_apriltag_1--><g class="entity" data-qualified-name="bringup_multi_cam.launch.py.mc_apriltag_1" data-source-line="40" id="ent0023"><rect fill="#F1F1F1" height="62.5938" rx="2.5" ry="2.5" style="stroke:#181818;stroke-width:0.5;" width="172.1592" x="32.77" y="176.9969"/><rect fill="#F1F1F1" height="10" style="stroke:#181818;stroke-width:0.5;" width="15" x="184.9292" y="181.9969"/><rect fill="#F1F1F1" height="2" style="stroke:#181818;stroke-width:0.5;" width="4" x="182.9292" y="183.9969"/><rect fill="#F1F1F1" height="2" style="stroke:#181818;stroke-width:0.5;" width="4" x="182.9292" y="187.9969"/><text fill="#000000" font-family="sans-serif" font-size="14" lengthAdjust="spacing" textLength="53.9561" x="47.77" y="209.992">apriltag</text><text fill="#000000" font-family="sans-serif" font-size="14" lengthAdjust="spacing" textLength="132.1592" x="47.77" y="226.2889">/camera_1/apriltag</text></g><!--entity mc_apriltag_2--><g class="entity" data-qualified-name="bringup_multi_cam.launch.py.mc_apriltag_2" data-source-line="41" id="ent0024"><rect fill="#F1F1F1" height="62.5938" rx="2.5" ry="2.5" style="stroke:#181818;stroke-width:0.5;" width="172.1592" x="32.77" y="78.9969"/><rect fill="#F1F1F1" height="10" style="stroke:#181818;stroke-width:0.5;" width="15" x="184.9292" y="83.9969"/><rect fill="#F1F1F1" height="2" style="stroke:#181818;stroke-width:0.5;" width="4" x="182.9292" y="85.9969"/><rect fill="#F1F1F1" height="2" style="stroke:#181818;stroke-width:0.5;" width="4" x="182.9292" y="89.9969"/><text fill="#000000" font-family="sans-serif" font-size="14" lengthAdjust="spacing" textLength="53.9561" x="47.77" y="111.992">apriltag</text><text fill="#000000" font-family="sans-serif" font-size="14" lengthAdjust="spacing" textLength="132.1592" x="47.77" y="128.2889">/camera_2/apriltag</text></g><!--entity mc_observer--><g class="entity" data-qualified-name="bringup_multi_cam.launch.py.mc_observer" data-source-line="42" id="ent0025"><rect fill="#F1F1F1" height="46.2969" rx="2.5" ry="2.5" style="stroke:#181818;stroke-width:0.5;" width="172.084" x="291.05" y="188.1469"/><rect fill="#F1F1F1" height="10" style="stroke:#181818;stroke-width:0.5;" width="15" x="443.134" y="193.1469"/><rect fill="#F1F1F1" height="2" style="stroke:#181818;stroke-width:0.5;" width="4" x="441.134" y="195.1469"/><rect fill="#F1F1F1" height="2" style="stroke:#181818;stroke-width:0.5;" width="4" x="441.134" y="199.1469"/><text fill="#000000" font-family="sans-serif" font-size="14" lengthAdjust="spacing" textLength="132.084" x="306.05" y="221.142">tag_pose_observer</text></g><!--entity mc_ekf--><g class="entity" data-qualified-name="bringup_multi_cam.launch.py.mc_ekf" data-source-line="43" id="ent0026"><rect fill="#F1F1F1" height="62.5938" rx="2.5" ry="2.5" style="stroke:#181818;stroke-width:0.5;" width="242.7471" x="563.05" y="184.9969"/><rect fill="#F1F1F1" height="10" style="stroke:#181818;stroke-width:0.5;" width="15" x="785.7971" y="189.9969"/><rect fill="#F1F1F1" height="2" style="stroke:#181818;stroke-width:0.5;" width="4" x="783.7971" y="191.9969"/><rect fill="#F1F1F1" height="2" style="stroke:#181818;stroke-width:0.5;" width="4" x="783.7971" y="195.9969"/><text fill="#000000" font-family="sans-serif" font-size="14" lengthAdjust="spacing" textLength="59.7529" x="578.05" y="217.992">ekf_map</text><text fill="#000000" font-family="sans-serif" font-size="14" lengthAdjust="spacing" textLength="202.7471" x="578.05" y="234.2889">(robot_localization/ekf_node)</text></g><!--entity mc_rviz--><g class="entity" data-qualified-name="bringup_multi_cam.launch.py.mc_rviz" data-source-line="44" id="ent0027"><rect fill="#F1F1F1" height="46.2969" rx="2.5" ry="2.5" style="stroke:#181818;stroke-width:0.5;" width="74.1865" x="938.3" y="235.1469"/><rect fill="#F1F1F1" height="10" style="stroke:#181818;stroke-width:0.5;" width="15" x="992.4865" y="240.1469"/><rect fill="#F1F1F1" height="2" style="stroke:#181818;stroke-width:0.5;" width="4" x="990.4865" y="242.1469"/><rect fill="#F1F1F1" height="2" style="stroke:#181818;stroke-width:0.5;" width="4" x="990.4865" y="246.1469"/><text fill="#000000" font-family="sans-serif" font-size="14" lengthAdjust="spacing" textLength="34.1865" x="953.3" y="268.142">rviz2</text></g><!--link sc_usb_cam to sc_rectify--><g class="link" data-entity-1="ent0005" data-entity-2="ent0006" data-link-type="dependency" data-source-line="23" id="lnk11"><path d="M209.17,541.7969 C230.26,541.7969 246.87,541.7969 268.45,541.7969" fill="none" id="sc_usb_cam-to-sc_rectify" style="stroke:#181818;stroke-width:1;"/><polygon fill="#181818" points="274.45,541.7969,265.45,537.7969,269.45,541.7969,265.45,545.7969,274.45,541.7969" style="stroke:#181818;stroke-width:1;"/><text fill="#000000" font-family="sans-serif" font-size="13" lengthAdjust="spacing" textLength="143.5522" x="247.3264" y="522.8638">/camera_1/image_raw</text><text fill="#000000" font-family="sans-serif" font-size="13" lengthAdjust="spacing" textLength="152.585" x="242.81" y="537.9966">/camera_1/camera_info</text></g><!--link sc_rectify to sc_apriltag--><g class="link" data-entity-1="ent0006" data-entity-2="ent0007" data-link-type="dependency" data-source-line="24" id="lnk12"><path d="M479.85,541.2969 C518.16,541.2969 555.22,541.2969 591.91,541.2969" fill="none" id="sc_rectify-to-sc_apriltag" style="stroke:#181818;stroke-width:1;"/><polygon fill="#181818" points="597.91,541.2969,588.91,537.2969,592.91,541.2969,588.91,545.2969,597.91,541.2969" style="stroke:#181818;stroke-width:1;"/><text fill="#000000" font-family="sans-serif" font-size="13" lengthAdjust="spacing" textLength="145.1963" x="539.88" y="554.3638">/camera_1/image_rect</text></g><!--link sc_usb_cam to sc_apriltag--><g class="link" data-entity-1="ent0005" data-entity-2="ent0007" data-link-type="dependency" data-source-line="25" id="lnk13"><path d="M209.4,510.4969 C316.28,510.4969 486.73,510.4969 591.85,510.4969" fill="none" id="sc_usb_cam-to-sc_apriltag" style="stroke:#181818;stroke-width:1;"/><polygon fill="#181818" points="597.85,510.4969,588.85,506.4969,592.85,510.4969,588.85,514.4969,597.85,510.4969" style="stroke:#181818;stroke-width:1;"/><text fill="#000000" font-family="sans-serif" font-size="13" lengthAdjust="spacing" textLength="152.585" x="404.63" y="506.5638">/camera_1/camera_info</text></g><!--link sc_apriltag to sc_observer--><g class="link" data-entity-1="ent0007" data-entity-2="ent0008" data-link-type="dependency" data-source-line="27" id="lnk14"><path d="M770.93,524.2969 C808.21,524.2969 845.7,524.2969 882.96,524.2969" fill="none" id="sc_apriltag-to-sc_observer" style="stroke:#181818;stroke-width:1;"/><polygon fill="#181818" points="888.96,524.2969,879.96,520.2969,883.96,524.2969,879.96,528.2969,888.96,524.2969" style="stroke:#181818;stroke-width:1;"/><text fill="#000000" font-family="sans-serif" font-size="13" lengthAdjust="spacing" textLength="168.6001" x="830.95" y="520.3638">/camera_1/tag_detections</text></g><!--link sc_observer to sc_ekf--><g class="link" data-entity-1="ent0008" data-entity-2="ent0009" data-link-type="dependency" data-source-line="28" id="lnk15"><path d="M1061.85,524.2969 C1080.77,524.2969 1095.14,524.2969 1115.15,524.2969" fill="none" id="sc_observer-to-sc_ekf" style="stroke:#181818;stroke-width:1;"/><polygon fill="#181818" points="1121.15,524.2969,1112.15,520.2969,1116.15,524.2969,1112.15,528.2969,1121.15,524.2969" style="stroke:#181818;stroke-width:1;"/><text fill="#000000" font-family="sans-serif" font-size="13" lengthAdjust="spacing" textLength="109.3193" x="981.5" y="537.3638">/tag_global_pose</text></g><!--link sc_rsp to sc_observer--><g class="link" data-entity-1="ent0003" data-entity-2="ent0008" data-link-type="dependency" data-source-line="30" id="lnk16"><path d="M775.37,590.0669 C775.37,567.2569 775.37,535.8669 775.37,535.8669 C775.37,535.8669 828.98,535.8669 883.11,535.8669" fill="none" id="sc_rsp-to-sc_observer" style="stroke:#181818;stroke-width:1;stroke-dasharray:7,7;"/><polygon fill="#181818" points="889.11,535.8669,880.11,531.8669,884.11,535.8669,880.11,539.8669,889.11,535.8669" style="stroke:#181818;stroke-width:1;"/><text fill="#000000" font-family="sans-serif" font-size="13" lengthAdjust="spacing" textLength="78.5649" x="806.14" y="548.9338">/tf, /tf_static</text></g><!--link sc_static_tf to sc_observer--><g class="link" data-entity-1="ent0004" data-entity-2="ent0008" data-link-type="dependency" data-source-line="31" id="lnk17"><path d="M804.37,457.9869 C804.37,482.6569 804.37,512.7269 804.37,512.7269 C804.37,512.7269 840.46,512.7269 882.88,512.7269" fill="none" id="sc_static_tf-to-sc_observer" style="stroke:#181818;stroke-width:1;stroke-dasharray:7,7;"/><polygon fill="#181818" points="888.88,512.7269,879.88,508.7269,883.88,512.7269,879.88,516.7269,888.88,512.7269" style="stroke:#181818;stroke-width:1;"/><text fill="#000000" font-family="sans-serif" font-size="13" lengthAdjust="spacing" textLength="305.6333" x="513.26" y="525.7938">/tf_static (base_link-&gt;camera_1_optical_frame)</text></g><!--link sc_rsp to sc_rviz--><g class="link" data-entity-1="ent0003" data-entity-2="ent0010" data-link-type="dependency" data-source-line="33" id="lnk18"><path d="M780.47,613.2969 C988.34,613.2969 1461.37,613.2969 1461.37,613.2969 C1461.37,613.2969 1461.37,580.0469 1461.37,553.6769" fill="none" id="sc_rsp-to-sc_rviz" style="stroke:#181818;stroke-width:1;stroke-dasharray:7,7;"/><polygon fill="#181818" points="1461.37,547.6769,1457.37,556.6769,1461.37,552.6769,1465.37,556.6769,1461.37,547.6769" style="stroke:#181818;stroke-width:1;"/><text fill="#000000" font-family="sans-serif" font-size="13" lengthAdjust="spacing" textLength="78.5649" x="1074.73" y="626.3638">/tf, /tf_static</text></g><!--link sc_static_tf to sc_rviz--><g class="link" data-entity-1="ent0004" data-entity-2="ent0010" data-link-type="dependency" data-source-line="34" id="lnk19"><path d="M829.65,426.2969 C1054.52,426.2969 1461.37,426.2969 1461.37,426.2969 C1461.37,426.2969 1461.37,466.0969 1461.37,495.0769" fill="none" id="sc_static_tf-to-sc_rviz" style="stroke:#181818;stroke-width:1;stroke-dasharray:7,7;"/><polygon fill="#181818" points="1461.37,501.0769,1465.37,492.0769,1461.37,496.0769,1457.37,492.0769,1461.37,501.0769" style="stroke:#181818;stroke-width:1;"/><text fill="#000000" font-family="sans-serif" font-size="13" lengthAdjust="spacing" textLength="56.2466" x="1125.9" y="439.3638">/tf_static</text></g><!--link sc_ekf to sc_rviz--><g class="link" data-entity-1="ent0009" data-entity-2="ent0010" data-link-type="dependency" data-source-line="35" id="lnk20"><path d="M1364.5,524.2969 C1386.05,524.2969 1400.95,524.2969 1417.78,524.2969" fill="none" id="sc_ekf-to-sc_rviz" style="stroke:#181818;stroke-width:1;stroke-dasharray:7,7;"/><polygon fill="#181818" points="1423.78,524.2969,1414.78,520.2969,1418.78,524.2969,1414.78,528.2969,1423.78,524.2969" style="stroke:#181818;stroke-width:1;"/><text fill="#000000" font-family="sans-serif" font-size="13" lengthAdjust="spacing" textLength="14.0537" x="1379.14" y="537.3638">/tf</text></g><!--link mc_apriltag_1 to mc_observer--><g class="link" data-entity-1="ent0023" data-entity-2="ent0025" data-link-type="dependency" data-source-line="46" id="lnk28"><path d="M205.2,203.5769 C232.76,203.5769 257.26,203.5769 284.82,203.5769" fill="none" id="mc_apriltag_1-to-mc_observer" style="stroke:#181818;stroke-width:1;"/><polygon fill="#181818" points="290.82,203.5769,281.82,199.5769,285.82,203.5769,281.82,207.5769,290.82,203.5769" style="stroke:#181818;stroke-width:1;"/><text fill="#000000" font-family="sans-serif" font-size="13" lengthAdjust="spacing" textLength="168.6001" x="249.01" y="199.6438">/camera_1/tag_detections</text></g><!--link mc_apriltag_2 to mc_observer--><g class="link" data-entity-1="ent0024" data-entity-2="ent0025" data-link-type="dependency" data-source-line="47" id="lnk29"><path d="M205.29,110.2969 C280.44,110.2969 377.37,110.2969 377.37,110.2969 C377.37,110.2969 377.37,152.0369 377.37,181.8669" fill="none" id="mc_apriltag_2-to-mc_observer" style="stroke:#181818;stroke-width:1;"/><polygon fill="#181818" points="377.37,187.8669,381.37,178.8669,377.37,182.8669,373.37,178.8669,377.37,187.8669" style="stroke:#181818;stroke-width:1;"/><text fill="#000000" font-family="sans-serif" font-size="13" lengthAdjust="spacing" textLength="168.6001" x="331.12" y="123.3638">/camera_2/tag_detections</text></g><!--link mc_observer to mc_ekf--><g class="link" data-entity-1="ent0025" data-entity-2="ent0026" data-link-type="dependency" data-source-line="48" id="lnk30"><path d="M463.52,211.2969 C494.32,211.2969 523.61,211.2969 556.82,211.2969" fill="none" id="mc_observer-to-mc_ekf" style="stroke:#181818;stroke-width:1;"/><polygon fill="#181818" points="562.82,211.2969,553.82,207.2969,557.82,211.2969,553.82,215.2969,562.82,211.2969" style="stroke:#181818;stroke-width:1;"/><text fill="#000000" font-family="sans-serif" font-size="13" lengthAdjust="spacing" textLength="109.3193" x="403.17" y="224.3638">/tag_global_pose</text></g><!--link mc_rsp to mc_observer--><g class="link" data-entity-1="ent0022" data-entity-2="ent0025" data-link-type="dependency" data-source-line="50" id="lnk31"><path d="M209.37,273.8069 C209.37,250.7469 209.37,219.0169 209.37,219.0169 C209.37,219.0169 243.68,219.0169 284.77,219.0169" fill="none" id="mc_rsp-to-mc_observer" style="stroke:#181818;stroke-width:1;stroke-dasharray:7,7;"/><polygon fill="#181818" points="290.77,219.0169,281.77,215.0169,285.77,219.0169,281.77,223.0169,290.77,219.0169" style="stroke:#181818;stroke-width:1;"/><text fill="#000000" font-family="sans-serif" font-size="13" lengthAdjust="spacing" textLength="78.5649" x="223.67" y="232.0838">/tf, /tf_static</text></g><!--link mc_rsp to mc_rviz--><g class="link" data-entity-1="ent0022" data-entity-2="ent0027" data-link-type="dependency" data-source-line="51" id="lnk32"><path d="M215.02,277.7969 C403.17,277.7969 806.49,277.7969 932.03,277.7969" fill="none" id="mc_rsp-to-mc_rviz" style="stroke:#181818;stroke-width:1;stroke-dasharray:7,7;"/><polygon fill="#181818" points="938.03,277.7969,929.03,273.7969,933.03,277.7969,929.03,281.7969,938.03,277.7969" style="stroke:#181818;stroke-width:1;"/><text fill="#000000" font-family="sans-serif" font-size="13" lengthAdjust="spacing" textLength="78.5649" x="497.53" y="290.8638">/tf, /tf_static</text></g><!--link mc_ekf to mc_rviz--><g class="link" data-entity-1="ent0026" data-entity-2="ent0027" data-link-type="dependency" data-source-line="52" id="lnk33"><path d="M806.13,241.3669 C853.63,241.3669 898.6,241.3669 932.06,241.3669" fill="none" id="mc_ekf-to-mc_rviz" style="stroke:#181818;stroke-width:1;stroke-dasharray:7,7;"/><polygon fill="#181818" points="938.06,241.3669,929.06,237.3669,933.06,241.3669,929.06,245.3669,938.06,241.3669" style="stroke:#181818;stroke-width:1;"/><text fill="#000000" font-family="sans-serif" font-size="13" lengthAdjust="spacing" textLength="14.0537" x="857.09" y="254.4338">/tf</text></g><g class="legend" data-source-line="8"><rect fill="#DDDDDD" height="42.5938" rx="7.5" ry="7.5" style="stroke:#000000;stroke-width:1;" width="354.3398" x="1140.0302" y="669.2969"/><text fill="#000000" font-family="sans-serif" font-size="14" lengthAdjust="spacing" textLength="343.3555" x="1145.0302" y="687.292">Solid arrows: topic flow between launched nodes</text><text fill="#000000" font-family="sans-serif" font-size="14" lengthAdjust="spacing" textLength="344.3398" x="1145.0302" y="703.5889">Dashed arrows: TF flow between launched nodes</text></g><?plantuml-src hPJFRk8m4CRlUOeH9v2se7BieQVLla3tMCcQ97Qmy3_PfeYkzjtN9dOIGmgir0l2zlURyKo-iTjpPT2Y1BV3LX-vwe2XSBHomud1PeyTVVCdGS7IngFgn5GWkAB-P2XewtUw4fHvy1eixtOUMXuHhbLLUUv31BHK8QbjI7Kme7HBDruRtW0J-bW5kgEgxU7gJGlU1iBgetk1KGOrzKTA5GWyg6P7stCSL_r45nSP-FthfZhawRDLLQeH5kbUnF5O96bGhdjgRKwmR2d3W_0EcDKI6gqOxpO9MPzGYjK2_bGGJgJHYYeF2wjhxOdpw2anXrhmS4Ex07JW6cATATKrEagyZdcfnJF66-BPkrfwjYLMkqtUiwWSqrQEKLSvx82LmG-kZe7VrIQ5VzwahGocvKK5yVkn4ubDcxBJ_Q6WVgyCWCPouR6RmdalWtbTac6361rQecj7xSVOkBmkvNJFY4GJcjLtNUW61V_4QBzDF8nN7ReKDYuA_U2Vsw6IiAZ2-TWLU7fwdTG8Bp2MmsLm3x5udDQO_d35T1yeaobGhdakKb3E9fzbfebwQf0bBFUhm69tM-hxyNGzE0WJ69eKcIZjXAvHdBz7oXBi2-lrLGBFViIVPCDUEbXo7aZdi3mFG7XGza-l-Pv4ct0KChFmsD3LTUxugHxEEueBNQppIb7zdNaPP7W0UFam_CVGovcXlpiVSloWvFaUk_sQtJuoNV8RfalUd2uvJbTHsTbpyb6p5eNTGBUpQE5pUSldSlIQlEFpKlgbBULeDtbXjty0?></g></svg>