<?plantuml 1.2026.1?><svg xmlns="http://www.w3.org/2000/svg" xmlns:xlink="http://www.w3.org/1999/xlink" contentStyleType="text/css" data-diagram-type="DESCRIPTION" height="365px" preserveAspectRatio="none" style="width:1476px;height:365px;background:#FFFFFF;" version="1.1" viewBox="0 0 1476 365" width="1476px" zoomAndPan="magnify"><title>bringup_single_cam.launch.py node/topic flow</title><defs/><g><g class="title" data-source-line="6"><text fill="#000000" font-family="sans-serif" font-size="14" font-weight="bold" lengthAdjust="spacing" textLength="364.5127" x="549.1669" y="22.9951">bringup_single_cam.launch.py node/topic flow</text></g><!--entity rsp--><g class="entity" data-qualified-name="rsp" data-source-line="13" id="ent0002"><rect fill="#F1F1F1" height="46.2969" rx="2.5" ry="2.5" style="stroke:#181818;stroke-width:0.5;" width="191.6895" x="561.06" y="44.2969"/><rect fill="#F1F1F1" height="10" style="stroke:#181818;stroke-width:0.5;" width="15" x="732.7495" y="49.2969"/><rect fill="#F1F1F1" height="2" style="stroke:#181818;stroke-width:0.5;" width="4" x="730.7495" y="51.2969"/><rect fill="#F1F1F1" height="2" style="stroke:#181818;stroke-width:0.5;" width="4" x="730.7495" y="55.2969"/><text fill="#000000" font-family="sans-serif" font-size="14" lengthAdjust="spacing" textLength="151.6895" x="576.06" y="77.292">robot_state_publisher</text></g><!--entity static_tf--><g class="entity" data-qualified-name="static_tf" data-source-line="14" id="ent0003"><rect fill="#F1F1F1" height="62.5938" rx="2.5" ry="2.5" style="stroke:#181818;stroke-width:0.5;" width="289.8604" x="511.97" y="223.1569"/><rect fill="#F1F1F1" height="10" style="stroke:#181818;stroke-width:0.5;" width="15" x="781.8304" y="228.1569"/><rect fill="#F1F1F1" height="2" style="stroke:#181818;stroke-width:0.5;" width="4" x="779.8304" y="230.1569"/><rect fill="#F1F1F1" height="2" style="stroke:#181818;stroke-width:0.5;" width="4" x="779.8304" y="234.1569"/><text fill="#000000" font-family="sans-serif" font-size="14" lengthAdjust="spacing" textLength="177.1465" x="526.97" y="256.152">base_to_camera_static_tf</text><text fill="#000000" font-family="sans-serif" font-size="14" lengthAdjust="spacing" textLength="249.8604" x="526.97" y="272.4489">(tf2_ros/static_transform_publisher)</text></g><!--entity usb_cam--><g class="entity" data-qualified-name="usb_cam" data-source-line="15" id="ent0004"><rect fill="#F1F1F1" height="62.5938" rx="2.5" ry="2.5" style="stroke:#181818;stroke-width:0.5;" width="180.1709" x="7" y="125.1569"/><rect fill="#F1F1F1" height="10" style="stroke:#181818;stroke-width:0.5;" width="15" x="167.1709" y="130.1569"/><rect fill="#F1F1F1" height="2" style="stroke:#181818;stroke-width:0.5;" width="4" x="165.1709" y="132.1569"/><rect fill="#F1F1F1" height="2" style="stroke:#181818;stroke-width:0.5;" width="4" x="165.1709" y="136.1569"/><text fill="#000000" font-family="sans-serif" font-size="14" lengthAdjust="spacing" textLength="61.9678" x="22" y="158.152">usb_cam</text><text fill="#000000" font-family="sans-serif" font-size="14" lengthAdjust="spacing" textLength="140.1709" x="22" y="174.4489">/camera_1/usb_cam</text></g><!--entity rectify--><g class="entity" data-qualified-name="rectify" data-source-line="16" id="ent0005"><rect fill="#F1F1F1" height="62.5938" rx="2.5" ry="2.5" style="stroke:#181818;stroke-width:0.5;" width="204.8008" x="247.17" y="83.1569"/><rect fill="#F1F1F1" height="10" style="stroke:#181818;stroke-width:0.5;" width="15" x="431.9708" y="88.1569"/><rect fill="#F1F1F1" height="2" style="stroke:#181818;stroke-width:0.5;" width="4" x="429.9708" y="90.1569"/><rect fill="#F1F1F1" height="2" style="stroke:#181818;stroke-width:0.5;" width="4" x="429.9708" y="94.1569"/><text fill="#000000" font-family="sans-serif" font-size="14" lengthAdjust="spacing" textLength="86.5977" x="262.17" y="116.152">rectify_node</text><text fill="#000000" font-family="sans-serif" font-size="14" lengthAdjust="spacing" textLength="164.8008" x="262.17" y="132.4489">/camera_1/rectify_node</text></g><!--entity apriltag--><g class="entity" data-qualified-name="apriltag" data-source-line="17" id="ent0006"><rect fill="#F1F1F1" height="62.5938" rx="2.5" ry="2.5" style="stroke:#181818;stroke-width:0.5;" width="172.1592" x="570.82" y="125.1569"/><rect fill="#F1F1F1" height="10" style="stroke:#181818;stroke-width:0.5;" width="15" x="722.9792" y="130.1569"/><rect fill="#F1F1F1" height="2" style="stroke:#181818;stroke-width:0.5;" width="4" x="720.9792" y="132.1569"/><rect fill="#F1F1F1" height="2" style="stroke:#181818;stroke-width:0.5;" width="4" x="720.9792" y="136.1569"/><text fill="#000000" font-family="sans-serif" font-size="14" lengthAdjust="spacing" textLength="53.9561" x="585.82" y="158.152">apriltag</text><text fill="#000000" font-family="sans-serif" font-size="14" lengthAdjust="spacing" textLength="132.1592" x="585.82" y="174.4489">/camera_1/apriltag</text></g><!--entity observer--><g class="entity" data-qualified-name="observer" data-source-line="18" id="ent0007"><rect fill="#F1F1F1" height="46.2969" rx="2.5" ry="2.5" style="stroke:#181818;stroke-width:0.5;" width="172.084" x="861.83" y="133.2969"/><rect fill="#F1F1F1" height="10" style="stroke:#181818;stroke-width:0.5;" width="15" x="1013.914" y="138.2969"/><rect fill="#F1F1F1" height="2" style="stroke:#181818;stroke-width:0.5;" width="4" x="1011.914" y="140.2969"/><rect fill="#F1F1F1" height="2" style="stroke:#181818;stroke-width:0.5;" width="4" x="1011.914" y="144.2969"/><text fill="#000000" font-family="sans-serif" font-size="14" lengthAdjust="spacing" textLength="132.084" x="876.83" y="166.292">tag_pose_observer</text></g><!--entity ekf--><g class="entity" data-qualified-name="ekf" data-source-line="19" id="ent0008"><rect fill="#F1F1F1" height="62.5938" rx="2.5" ry="2.5" style="stroke:#181818;stroke-width:0.5;" width="242.7471" x="1093.92" y="125.1569"/><rect fill="#F1F1F1" height="10" style="stroke:#181818;stroke-width:0.5;" width="15" x="1316.6671" y="130.1569"/><rect fill="#F1F1F1" height="2" style="stroke:#181818;stroke-width:0.5;" width="4" x="1314.6671" y="132.1569"/><rect fill="#F1F1F1" height="2" style="stroke:#181818;stroke-width:0.5;" width="4" x="1314.6671" y="136.1569"/><text fill="#000000" font-family="sans-serif" font-size="14" lengthAdjust="spacing" textLength="59.7529" x="1108.92" y="158.152">ekf_map</text><text fill="#000000" font-family="sans-serif" font-size="14" lengthAdjust="spacing" textLength="202.7471" x="1108.92" y="174.4489">(robot_localization/ekf_node)</text></g><!--entity rviz--><g class="entity" data-qualified-name="rviz" data-source-line="20" id="ent0009"><rect fill="#F1F1F1" height="46.2969" rx="2.5" ry="2.5" style="stroke:#181818;stroke-width:0.5;" width="74.1865" x="1396.66" y="133.2969"/><rect fill="#F1F1F1" height="10" style="stroke:#181818;stroke-width:0.5;" width="15" x="1450.8465" y="138.2969"/><rect fill="#F1F1F1" height="2" style="stroke:#181818;stroke-width:0.5;" width="4" x="1448.8465" y="140.2969"/><rect fill="#F1F1F1" height="2" style="stroke:#181818;stroke-width:0.5;" width="4" x="1448.8465" y="144.2969"/><text fill="#000000" font-family="sans-serif" font-size="14" lengthAdjust="spacing" textLength="34.1865" x="1411.66" y="166.292">rviz2</text></g><!--link usb_cam to rectify--><g class="link" data-entity-1="ent0004" data-entity-2="ent0005" data-link-type="dependency" data-source-line="22" id="lnk10"><path d="M187.53,135.4469 C206.77,135.4469 221.22,135.4469 240.89,135.4469" fill="none" id="usb_cam-to-rectify" style="stroke:#181818;stroke-width:1;"/><polygon fill="#181818" points="246.89,135.4469,237.89,131.4469,241.89,135.4469,237.89,139.4469,246.89,135.4469" style="stroke:#181818;stroke-width:1;"/><text fill="#000000" font-family="sans-serif" font-size="13" lengthAdjust="spacing" textLength="143.5522" x="222.7264" y="148.5138">/camera_1/image_raw</text><text fill="#000000" font-family="sans-serif" font-size="13" lengthAdjust="spacing" textLength="152.585" x="218.21" y="163.6466">/camera_1/camera_info</text></g><!--link rectify to apriltag--><g class="link" data-entity-1="ent0005" data-entity-2="ent0006" data-link-type="dependency" data-source-line="23" id="lnk11"><path d="M452.34,135.4469 C490.64,135.4469 527.7,135.4469 564.39,135.4469" fill="none" id="rectify-to-apriltag" style="stroke:#181818;stroke-width:1;"/><polygon fill="#181818" points="570.39,135.4469,561.39,131.4469,565.39,135.4469,561.39,139.4469,570.39,135.4469" style="stroke:#181818;stroke-width:1;"/><text fill="#000000" font-family="sans-serif" font-size="13" lengthAdjust="spacing" textLength="145.1963" x="512.36" y="131.5138">/camera_1/image_rect</text></g><!--link usb_cam to apriltag--><g class="link" data-entity-1="ent0004" data-entity-2="ent0006" data-link-type="dependency" data-source-line="24" id="lnk12"><path d="M187.65,166.7469 C293.33,166.7469 460.79,166.7469 564.61,166.7469" fill="none" id="usb_cam-to-apriltag" style="stroke:#181818;stroke-width:1;"/><polygon fill="#181818" points="570.61,166.7469,561.61,162.7469,565.61,166.7469,561.61,170.7469,570.61,166.7469" style="stroke:#181818;stroke-width:1;"/><text fill="#000000" font-family="sans-serif" font-size="13" lengthAdjust="spacing" textLength="152.585" x="380.13" y="162.8138">/camera_1/camera_info</text></g><!--link apriltag to observer--><g class="link" data-entity-1="ent0006" data-entity-2="ent0007" data-link-type="dependency" data-source-line="26" id="lnk13"><path d="M743.42,156.4469 C780.69,156.4469 818.18,156.4469 855.44,156.4469" fill="none" id="apriltag-to-observer" style="stroke:#181818;stroke-width:1;"/><polygon fill="#181818" points="861.44,156.4469,852.44,152.4469,856.44,156.4469,852.44,160.4469,861.44,156.4469" style="stroke:#181818;stroke-width:1;"/><text fill="#000000" font-family="sans-serif" font-size="13" lengthAdjust="spacing" textLength="168.6001" x="803.43" y="169.5138">/camera_1/tag_detections</text></g><!--link observer to ekf--><g class="link" data-entity-1="ent0007" data-entity-2="ent0008" data-link-type="dependency" data-source-line="27" id="lnk14"><path d="M1034.33,156.4469 C1053.25,156.4469 1067.62,156.4469 1087.63,156.4469" fill="none" id="observer-to-ekf" style="stroke:#181818;stroke-width:1;"/><polygon fill="#181818" points="1093.63,156.4469,1084.63,152.4469,1088.63,156.4469,1084.63,160.4469,1093.63,156.4469" style="stroke:#181818;stroke-width:1;"/><text fill="#000000" font-family="sans-serif" font-size="13" lengthAdjust="spacing" textLength="109.3193" x="1064.98" y="169.5138">/tag_global_pose</text></g><!--link rsp to observer--><g class="link" data-entity-1="ent0002" data-entity-2="ent0007" data-link-type="dependency" data-source-line="29" id="lnk15"><path d="M747.85,90.6769 C747.85,113.4869 747.85,144.8769 747.85,144.8769 C747.85,144.8769 801.46,144.8769 855.59,144.8769" fill="none" id="rsp-to-observer" style="stroke:#181818;stroke-width:1;stroke-dasharray:7,7;"/><polygon fill="#181818" points="861.59,144.8769,852.59,140.8769,856.59,144.8769,852.59,148.8769,861.59,144.8769" style="stroke:#181818;stroke-width:1;"/><text fill="#000000" font-family="sans-serif" font-size="13" lengthAdjust="spacing" textLength="78.5649" x="778.62" y="140.9438">/tf, /tf_static</text></g><!--link static_tf to observer--><g class="link" data-entity-1="ent0003" data-entity-2="ent0007" data-link-type="dependency" data-source-line="30" id="lnk16"><path d="M776.85,222.7569 C776.85,198.0969 776.85,168.0269 776.85,168.0269 C776.85,168.0269 812.94,168.0269 855.36,168.0269" fill="none" id="static_tf-to-observer" style="stroke:#181818;stroke-width:1;stroke-dasharray:7,7;"/><polygon fill="#181818" points="861.36,168.0269,852.36,164.0269,856.36,168.0269,852.36,172.0269,861.36,168.0269" style="stroke:#181818;stroke-width:1;"/><text fill="#000000" font-family="sans-serif" font-size="13" lengthAdjust="spacing" textLength="305.6333" x="485.74" y="181.0938">/tf_static (base_link-&gt;camera_1_optical_frame)</text></g><!--link rsp to rviz--><g class="link" data-entity-1="ent0002" data-entity-2="ent0009" data-link-type="dependency" data-source-line="32" id="lnk17"><path d="M752.95,67.4469 C960.82,67.4469 1433.85,67.4469 1433.85,67.4469 C1433.85,67.4469 1433.85,100.6969 1433.85,127.0669" fill="none" id="rsp-to-rviz" style="stroke:#181818;stroke-width:1;stroke-dasharray:7,7;"/><polygon fill="#181818" points="1433.85,133.0669,1437.85,124.0669,1433.85,128.0669,1429.85,124.0669,1433.85,133.0669" style="stroke:#181818;stroke-width:1;"/><text fill="#000000" font-family="sans-serif" font-size="13" lengthAdjust="spacing" textLength="78.5649" x="1047.21" y="80.5138">/tf, /tf_static</text></g><!--link static_tf to rviz--><g class="link" data-entity-1="ent0003" data-entity-2="ent0009" data-link-type="dependency" data-source-line="33" id="lnk18"><path d="M802.13,254.4469 C1027.01,254.4469 1433.85,254.4469 1433.85,254.4469 C1433.85,254.4469 1433.85,214.6569 1433.85,185.6769" fill="none" id="static_tf-to-rviz" style="stroke:#181818;stroke-width:1;stroke-dasharray:7,7;"/><polygon fill="#181818" points="1433.85,179.6769,1429.85,188.6769,1433.85,184.6769,1437.85,188.6769,1433.85,179.6769" style="stroke:#181818;stroke-width:1;"/><text fill="#000000" font-family="sans-serif" font-size="13" lengthAdjust="spacing" textLength="56.2466" x="1098.38" y="267.5138">/tf_static</text></g><!--link ekf to rviz--><g class="link" data-entity-1="ent0008" data-entity-2="ent0009" data-link-type="dependency" data-source-line="34" id="lnk19"><path d="M1336.98,156.4469 C1358.53,156.4469 1373.43,156.4469 1390.26,156.4469" fill="none" id="ekf-to-rviz" style="stroke:#181818;stroke-width:1;stroke-dasharray:7,7;"/><polygon fill="#181818" points="1396.26,156.4469,1387.26,152.4469,1391.26,156.4469,1387.26,160.4469,1396.26,156.4469" style="stroke:#181818;stroke-width:1;"/><text fill="#000000" font-family="sans-serif" font-size="13" lengthAdjust="spacing" textLength="14.0537" x="1351.62" y="169.5138">/tf</text></g><g class="legend" data-source-line="8"><rect fill="#DDDDDD" height="42.5938" rx="7.5" ry="7.5" style="stroke:#000000;stroke-width:1;" width="354.3398" x="1096.5067" y="302.7506"/><text fill="#000000" font-family="sans-serif" font-size="14" lengthAdjust="spacing" textLength="343.3555" x="1101.5067" y="320.7457">Solid arrows: topic flow between launched nodes</text><text fill="#000000" font-family="sans-serif" font-size="14" lengthAdjust="spacing" textLength="344.3398" x="1101.5067" y="337.0426">Dashed arrows: TF flow between launched nodes</text></g><?plantuml-src XLF1Rjim3BthAuYUMc19i1vxw6dO3tJ70W9jKuuGMHGafa7wzPDiAv61OBiO8ldU8nz1fvFr0IDEa8uuyCNw4GowH2hTAW7x4uxq8LT74AaNzADh0SvwaciWu2X7LewCW314Enu51biebhrIOYKhT34tEGUTR97HFKvxXsVV7_VX2fu7EWW7suDnV55PR2G_B5hgWvqT06FaItg3EmmwaWkHXqM8XbadgL-OIb09Vtx_4vtxBDsKwdaAxCaBF4NkM7GI5DBXt3cR9UCJO8AOGWliC94MBeOeuiomlHRpwP_5lEh8wL1p4Nqo7AUxuCkiUEEqkkVK5SrFVrYLVnxMrCnPtvkHoyBDLHTRBQtDBmwMHCl54AqJ75jUpSsS6hIa7Eh0sJvtYUBNkfyQj4Ww6JrXo3jPzkguHsU_iHp8eHJBRCioShGnzMM_NvUfyqkfrJViTk_L1xp1VMWxvPlL4I-ja_LXlM5LIKMWcdgaa66RPW-nhR2w8GgyRc43BmiRI9OV8waRfX2oxu8jaD5nXsvUhLBvt62_tmgA-L4-wx6fs_qy0AuOU9xlDF-ofzrxdKTpoANSoUJVcLxklSgg_zld3ghrOc5RKNy1?></g></svg>