<?plantuml 1.2026.1?><svg xmlns="http://www.w3.org/2000/svg" xmlns:xlink="http://www.w3.org/1999/xlink" contentStyleType="text/css" data-diagram-type="DESCRIPTION" height="365px" preserveAspectRatio="none" style="width:873px;height:365px;background:#FFFFFF;" version="1.1" viewBox="0 0 873 365" width="873px" zoomAndPan="magnify"><title>bringup_multi_cam.launch.py node/topic flow</title><defs/><g><g class="title" data-source-line="6"><text fill="#000000" font-family="sans-serif" font-size="14" font-weight="bold" lengthAdjust="spacing" textLength="357.9434" x="250.8816" y="22.9951">bringup_multi_cam.launch.py node/topic flow</text></g><!--entity rsp--><g class="entity" data-qualified-name="rsp" data-source-line="13" id="ent0002"><rect fill="#F1F1F1" height="46.2969" rx="2.5" ry="2.5" style="stroke:#181818;stroke-width:0.5;" width="191.6895" x="7" y="239.4469"/><rect fill="#F1F1F1" height="10" style="stroke:#181818;stroke-width:0.5;" width="15" x="178.6895" y="244.4469"/><rect fill="#F1F1F1" height="2" style="stroke:#181818;stroke-width:0.5;" width="4" x="176.6895" y="246.4469"/><rect fill="#F1F1F1" height="2" style="stroke:#181818;stroke-width:0.5;" width="4" x="176.6895" y="250.4469"/><text fill="#000000" font-family="sans-serif" font-size="14" lengthAdjust="spacing" textLength="151.6895" x="22" y="272.442">robot_state_publisher</text></g><!--entity apriltag_1--><g class="entity" data-qualified-name="apriltag_1" data-source-line="14" id="ent0003"><rect fill="#F1F1F1" height="62.5938" rx="2.5" ry="2.5" style="stroke:#181818;stroke-width:0.5;" width="172.1592" x="16.77" y="44.2969"/><rect fill="#F1F1F1" height="10" style="stroke:#181818;stroke-width:0.5;" width="15" x="168.9292" y="49.2969"/><rect fill="#F1F1F1" height="2" style="stroke:#181818;stroke-width:0.5;" width="4" x="166.9292" y="51.2969"/><rect fill="#F1F1F1" height="2" style="stroke:#181818;stroke-width:0.5;" width="4" x="166.9292" y="55.2969"/><text fill="#000000" font-family="sans-serif" font-size="14" lengthAdjust="spacing" textLength="53.9561" x="31.77" y="77.292">apriltag</text><text fill="#000000" font-family="sans-serif" font-size="14" lengthAdjust="spacing" textLength="132.1592" x="31.77" y="93.5889">/camera_1/apriltag</text></g><!--entity apriltag_2--><g class="entity" data-qualified-name="apriltag_2" data-source-line="15" id="ent0004"><rect fill="#F1F1F1" height="62.5938" rx="2.5" ry="2.5" style="stroke:#181818;stroke-width:0.5;" width="172.1592" x="16.77" y="142.2969"/><rect fill="#F1F1F1" height="10" style="stroke:#181818;stroke-width:0.5;" width="15" x="168.9292" y="147.2969"/><rect fill="#F1F1F1" height="2" style="stroke:#181818;stroke-width:0.5;" width="4" x="166.9292" y="149.2969"/><rect fill="#F1F1F1" height="2" style="stroke:#181818;stroke-width:0.5;" width="4" x="166.9292" y="153.2969"/><text fill="#000000" font-family="sans-serif" font-size="14" lengthAdjust="spacing" textLength="53.9561" x="31.77" y="175.292">apriltag</text><text fill="#000000" font-family="sans-serif" font-size="14" lengthAdjust="spacing" textLength="132.1592" x="31.77" y="191.5889">/camera_2/apriltag</text></g><!--entity observer--><g class="entity" data-qualified-name="observer" data-source-line="16" id="ent0005"><rect fill="#F1F1F1" height="46.2969" rx="2.5" ry="2.5" style="stroke:#181818;stroke-width:0.5;" width="172.084" x="258.69" y="151.4469"/><rect fill="#F1F1F1" height="10" style="stroke:#181818;stroke-width:0.5;" width="15" x="410.774" y="156.4469"/><rect fill="#F1F1F1" height="2" style="stroke:#181818;stroke-width:0.5;" width="4" x="408.774" y="158.4469"/><rect fill="#F1F1F1" height="2" style="stroke:#181818;stroke-width:0.5;" width="4" x="408.774" y="162.4469"/><text fill="#000000" font-family="sans-serif" font-size="14" lengthAdjust="spacing" textLength="132.084" x="273.69" y="184.442">tag_pose_observer</text></g><!--entity ekf--><g class="entity" data-qualified-name="ekf" data-source-line="17" id="ent0006"><rect fill="#F1F1F1" height="62.5938" rx="2.5" ry="2.5" style="stroke:#181818;stroke-width:0.5;" width="242.7471" x="490.77" y="144.2969"/><rect fill="#F1F1F1" height="10" style="stroke:#181818;stroke-width:0.5;" width="15" x="713.5171" y="149.2969"/><rect fill="#F1F1F1" height="2" style="stroke:#181818;stroke-width:0.5;" width="4" x="711.5171" y="151.2969"/><rect fill="#F1F1F1" height="2" style="stroke:#181818;stroke-width:0.5;" width="4" x="711.5171" y="155.2969"/><text fill="#000000" font-family="sans-serif" font-size="14" lengthAdjust="spacing" textLength="59.7529" x="505.77" y="177.292">ekf_map</text><text fill="#000000" font-family="sans-serif" font-size="14" lengthAdjust="spacing" textLength="202.7471" x="505.77" y="193.5889">(robot_localization/ekf_node)</text></g><!--entity rviz--><g class="entity" data-qualified-name="rviz" data-source-line="18" id="ent0007"><rect fill="#F1F1F1" height="46.2969" rx="2.5" ry="2.5" style="stroke:#181818;stroke-width:0.5;" width="74.1865" x="793.52" y="195.4469"/><rect fill="#F1F1F1" height="10" style="stroke:#181818;stroke-width:0.5;" width="15" x="847.7065" y="200.4469"/><rect fill="#F1F1F1" height="2" style="stroke:#181818;stroke-width:0.5;" width="4" x="845.7065" y="202.4469"/><rect fill="#F1F1F1" height="2" style="stroke:#181818;stroke-width:0.5;" width="4" x="845.7065" y="206.4469"/><text fill="#000000" font-family="sans-serif" font-size="14" lengthAdjust="spacing" textLength="34.1865" x="808.52" y="228.442">rviz2</text></g><!--link apriltag_1 to observer--><g class="link" data-entity-1="ent0003" data-entity-2="ent0005" data-link-type="dependency" data-source-line="20" id="lnk8"><path d="M189.14,75.5969 C258.6,75.5969 344.71,75.5969 344.71,75.5969 C344.71,75.5969 344.71,115.8569 344.71,145.1369" fill="none" id="apriltag_1-to-observer" style="stroke:#181818;stroke-width:1;"/><polygon fill="#181818" points="344.71,151.1369,348.71,142.1369,344.71,146.1369,340.71,142.1369,344.71,151.1369" style="stroke:#181818;stroke-width:1;"/><text fill="#000000" font-family="sans-serif" font-size="13" lengthAdjust="spacing" textLength="168.6001" x="305.69" y="88.6638">/camera_1/tag_detections</text></g><!--link apriltag_2 to observer--><g class="link" data-entity-1="ent0004" data-entity-2="ent0005" data-link-type="dependency" data-source-line="21" id="lnk9"><path d="M189.15,166.8869 C211.67,166.8869 229.94,166.8869 252.46,166.8869" fill="none" id="apriltag_2-to-observer" style="stroke:#181818;stroke-width:1;"/><polygon fill="#181818" points="258.46,166.8869,249.46,162.8869,253.46,166.8869,249.46,170.8869,258.46,166.8869" style="stroke:#181818;stroke-width:1;"/><text fill="#000000" font-family="sans-serif" font-size="13" lengthAdjust="spacing" textLength="168.6001" x="224.8" y="162.9538">/camera_2/tag_detections</text></g><!--link observer to ekf--><g class="link" data-entity-1="ent0005" data-entity-2="ent0006" data-link-type="dependency" data-source-line="22" id="lnk10"><path d="M431.18,174.5969 C450.11,174.5969 464.48,174.5969 484.49,174.5969" fill="none" id="observer-to-ekf" style="stroke:#181818;stroke-width:1;"/><polygon fill="#181818" points="490.49,174.5969,481.49,170.5969,485.49,174.5969,481.49,178.5969,490.49,174.5969" style="stroke:#181818;stroke-width:1;"/><text fill="#000000" font-family="sans-serif" font-size="13" lengthAdjust="spacing" textLength="109.3193" x="350.83" y="187.6638">/tag_global_pose</text></g><!--link rsp to observer--><g class="link" data-entity-1="ent0002" data-entity-2="ent0005" data-link-type="dependency" data-source-line="24" id="lnk11"><path d="M195.71,239.3769 C195.71,215.6669 195.71,182.3169 195.71,182.3169 C195.71,182.3169 219.52,182.3169 252.47,182.3169" fill="none" id="rsp-to-observer" style="stroke:#181818;stroke-width:1;stroke-dasharray:7,7;"/><polygon fill="#181818" points="258.47,182.3169,249.47,178.3169,253.47,182.3169,249.47,186.3169,258.47,182.3169" style="stroke:#181818;stroke-width:1;"/><text fill="#000000" font-family="sans-serif" font-size="13" lengthAdjust="spacing" textLength="78.5649" x="199.56" y="195.3838">/tf, /tf_static</text></g><!--link rsp to rviz--><g class="link" data-entity-1="ent0002" data-entity-2="ent0007" data-link-type="dependency" data-source-line="25" id="lnk12"><path d="M191.71,239.2069 C191.71,230.7169 191.71,223.1769 191.71,223.1769 C191.71,223.1769 650.08,223.1769 787.03,223.1769" fill="none" id="rsp-to-rviz" style="stroke:#181818;stroke-width:1;stroke-dasharray:7,7;"/><polygon fill="#181818" points="793.03,223.1769,784.03,219.1769,788.03,223.1769,784.03,227.1769,793.03,223.1769" style="stroke:#181818;stroke-width:1;"/><text fill="#000000" font-family="sans-serif" font-size="13" lengthAdjust="spacing" textLength="78.5649" x="405.35" y="236.2438">/tf, /tf_static</text></g><!--link ekf to rviz--><g class="link" data-entity-1="ent0006" data-entity-2="ent0007" data-link-type="dependency" data-source-line="26" id="lnk13"><path d="M733.84,201.1769 C755.39,201.1769 770.29,201.1769 787.12,201.1769" fill="none" id="ekf-to-rviz" style="stroke:#181818;stroke-width:1;stroke-dasharray:7,7;"/><polygon fill="#181818" points="793.12,201.1769,784.12,197.1769,788.12,201.1769,784.12,205.1769,793.12,201.1769" style="stroke:#181818;stroke-width:1;"/><text fill="#000000" font-family="sans-serif" font-size="13" lengthAdjust="spacing" textLength="14.0537" x="748.48" y="214.2438">/tf</text></g><g class="legend" data-source-line="8"><rect fill="#DDDDDD" height="42.5938" rx="7.5" ry="7.5" style="stroke:#000000;stroke-width:1;" width="354.3398" x="493.3667" y="302.7438"/><text fill="#000000" font-family="sans-serif" font-size="14" lengthAdjust="spacing" textLength="343.3555" x="498.3667" y="320.7389">Solid arrows: topic flow between launched nodes</text><text fill="#000000" font-family="sans-serif" font-size="14" lengthAdjust="spacing" textLength="344.3398" x="498.3667" y="337.0357">Dashed arrows: TF flow between launched nodes</text></g><?plantuml-src VL7DReCm3BxdAQoUDca3bMCFEqrxWUvO2HamD6g8eyGKjK-_14P_fhMNACxtOtznE6Zhq6CFOOyDZzfsqA89fC85SLWViAEjd0o1frhGTkQMOBGbEJa2zh9dPQWL40Qlkxr0evD4irLAj4I7oiScWolxmOWkQ-mpWuEjzvaxWUM6Sc6dQsWDZofwTMIRsKfjsUW6q7iUmmQkDAX8HY8Bin4raqzGdnXIiGY-lvwoOv-vcr8rzuujMO6Lvugb3892fHigewEbNm46yC7T4j5vRGIxdSrZ9l9OhlFbRU8lHRb-BYiUo8fRMNfm7AZaAf0__ewq5BTCEhHbZsvdN-OeXciq-enf9Na2K_hNIHwhk-X7VIxcgF6cr3K0lBz_N9h11gw94zoGp1iFLqdnI5BybLmuIH0dIjn4wGnNQARGIiM_XooxDvJsBHtJhdHzeQJP_u6JypsiVW00?></g></svg>